# xmcd CD database file
#
# Track frame offsets:
#	150
#	12173
#	23963
#	41363
#	53241
#	65599
#	78020
#	94131
#	112724
#	126749
#	138651
#
# Disc length: 1999 seconds
#
# Revision: 2
# Processed by: cddbd v1.4PL0 Copyright (c) Steve Scherf et al.
# Submitted via: CDex 1.40Beta8
#
DISCID=8d07cd0b
DTITLE=Kenny Son Civale - Soul, Truth and the Bottom Line 
DYEAR=2001
DGENRE=Blues
TTITLE0=Yous Fine
TTITLE1=Payroll
TTITLE2=Interstate Love Affair
TTITLE3=Drunkt Up Motor Mouth
TTITLE4=Heard it on the X
TTITLE5=Hello Yello
TTITLE6=Tone of the Prison Wall
TTITLE7=Texas Rock n Roll
TTITLE8=Dock of the Bay
TTITLE9=C-ya
TTITLE10=Love Struck Baby
EXTD=YEAR: 2001 ID3G: 0
EXTT0=
EXTT1=
EXTT2=
EXTT3=
EXTT4=
EXTT5=
EXTT6=
EXTT7=
EXTT8=
EXTT9=
EXTT10=
PLAYORDER=
